<svg xmlns="http://www.w3.org/2000/svg" width="96" height="96" viewBox="0 0 96 96" fill="none">
  <defs>
    <linearGradient id="g" x1="10" y1="14" x2="86" y2="82" gradientUnits="userSpaceOnUse">
      <stop stop-color="#1F6FEB"/>
      <stop offset="0.38" stop-color="#2DD4BF"/>
      <stop offset="0.68" stop-color="#A3E635"/>
      <stop offset="1" stop-color="#F59E0B"/>
    </linearGradient>
  </defs>

  <!-- outer ring -->
  <circle cx="48" cy="48" r="34" stroke="url(#g)" stroke-width="10" stroke-linecap="round"/>
  <!-- compass pointers (simple) -->
  <path d="M48 6 L56 20 L40 20 Z" fill="#2DD4BF" opacity="0.85"/>
  <path d="M90 48 L76 56 L76 40 Z" fill="#F59E0B" opacity="0.85"/>
  <path d="M48 90 L40 76 L56 76 Z" fill="#F59E0B" opacity="0.75"/>
  <path d="M6 48 L20 40 L20 56 Z" fill="#1F6FEB" opacity="0.85"/>

  <!-- bulb -->
  <circle cx="48" cy="48" r="22" fill="white"/>
  <path d="M48 30c-7 0-12 5-12 12 0 5 2 8 6 11 1 1 2 3 2 4h8c0-1 1-3 2-4 4-3 6-6 6-11 0-7-5-12-12-12Z" fill="#F59E0B"/>
  <rect x="42" y="60" width="12" height="6" rx="3" fill="#2C3550" opacity="0.9"/>
</svg>
